<svg xmlns="http://www.w3.org/2000/svg" width="256" height="256" fill="none" viewBox="0 0 256 256"><g clip-path="url(#clip0)"><path fill="#53B9FF" d="M39.8626 54.1143L0.310594 93.7162L61.3062 154.895L0 216.385L39.4283 256.004L100.858 194.497L161.955 255.564L201.507 215.962L39.8626 54.1143Z"/><path fill="#119EFF" d="M140.517 154.896L100.859 194.498L161.956 255.566L201.508 215.964L140.517 154.896Z"/><path fill="#000" fill-opacity=".2" d="M140.517 154.896L100.859 194.498L116.126 209.679L140.517 154.896Z"/><path fill="#53B9FF" d="M194.57 100.985L256.001 39.478L216.432 0L155.019 61.3836L93.9172 0.310993L54.3652 39.913L216.01 201.761L255.562 162.159L194.57 100.985Z"/><path fill="#119EFF" d="M115.361 100.987L155.019 61.3851L93.9172 0.3125L54.3652 39.9145L115.361 100.987Z"/><path fill="#000" fill-opacity=".2" d="M115.359 100.986L155.018 61.3842L139.748 46.1982L115.359 100.986Z"/></g><defs><clipPath id="clip0"><rect width="256" height="256" fill="#fff"/></clipPath></defs></svg>