<svg xmlns="http://www.w3.org/2000/svg" width="256" height="256" fill="none" viewBox="0 0 256 256"><path fill="#FBC707" d="M127.946 31.9908L55.0724 23.9204L0 0.00424957H63.9707L127.946 31.9951"/><path fill="#FBC707" d="M127.945 31.9908L202.488 25.5891L255.891 0.00424957H191.916L127.945 31.9951"/><path fill="#F68712" d="M127.945 223.905L197.481 226.408L255.891 255.892H191.916L127.945 223.9"/><path fill="#F25C19" d="M127.946 223.905H57.8538L0 255.892H63.9707L127.946 223.9"/><path fill="#FFF200" d="M31.9853 127.949V195.256L0 255.892V191.921L31.9853 127.947"/><path fill="#FFF200" d="M31.9853 127.949L26.7016 61.1916L0 0.00435638V63.9746L31.9853 127.948"/><path fill="#F1471D" d="M223.9 127.949L230.858 57.8539L255.891 0.00435638V63.9746L223.9 127.948"/><path fill="#F1471D" d="M223.9 127.949L229.746 203.044L255.891 255.892V191.921L223.9 127.947"/><path fill="#FAB20B" d="M0 0.00435638L127.946 31.9909L107.363 113.483L31.9853 127.949L0 0.0111084"/><path fill="#F47216" d="M255.891 0.00435638L223.901 127.949L137.959 112.366L127.945 31.987L255.891 0.0111084"/><path fill="#F25C19" d="M255.891 255.892L127.945 223.905L142.409 139.078L223.9 127.955L255.891 255.884"/><path fill="#F89C0E" d="M0 255.892L31.9853 127.949L109.032 145.191L127.946 223.905L0 255.884"/><path fill="#F68712" d="M127.945 31.9907L31.9844 127.949L127.945 223.905L223.9 127.949L127.945 31.995"/></svg>