<svg xmlns="http://www.w3.org/2000/svg" width="256" height="326" fill="none" viewBox="0 0 256 326"><path fill="url(#paint0_linear)" d="M227.907 28.2923C242.8 32.4055 253.095 45.8034 253.095 61.0681V264.397C253.095 279.799 242.582 293.246 227.495 297.246L134.227 323.42L164.206 259.88V57.86L138.768 2.22363L227.907 28.2923Z"/><path fill="url(#paint1_linear)" d="M164.198 251.799V283.532C164.198 314.263 133.297 334.029 107.479 319.823L51.4304 283.904C44.9496 280.138 41.4425 272.09 43.6405 264.049C45.6849 256.566 52.6991 251.799 60.0769 251.799H164.198Z"/><path fill="url(#paint2_linear)" d="M115.287 5.54551L18.9312 60.3819C8.83018 66.1354 2.5918 76.8586 2.5918 88.4788V237.4C2.5918 248.366 14.3817 255.299 23.9655 249.958L60.1029 229.828C64.5069 227.38 67.2383 222.725 67.2383 217.683V112.35C67.2383 101.788 73.5413 92.3091 83.1009 88.5192L164.208 60.3495V35.3799C164.208 9.48895 137.291 -6.92317 115.287 5.54551Z"/><defs><linearGradient id="paint0_linear" x1="193.661" x2="193.661" y1="24.236" y2="297.173" gradientUnits="userSpaceOnUse"><stop stop-color="#E68E00"/><stop offset=".036" stop-color="#E38400"/><stop offset=".171" stop-color="#DB6200"/><stop offset=".299" stop-color="#D44A00"/><stop offset=".417" stop-color="#D03B00"/><stop offset=".515" stop-color="#CF3600"/><stop offset=".878" stop-color="#D22900"/><stop offset="1" stop-color="#D42400"/></linearGradient><linearGradient id="paint1_linear" x1="50.437" x2="172.691" y1="251.403" y2="300.874" gradientUnits="userSpaceOnUse"><stop stop-color="#F52537"/><stop offset=".293" stop-color="#F32536"/><stop offset=".465" stop-color="#EA2434"/><stop offset=".605" stop-color="#DC2231"/><stop offset=".729" stop-color="#C8202C"/><stop offset=".841" stop-color="#AE1E25"/><stop offset=".944" stop-color="#8F1A1D"/><stop offset="1" stop-color="#7A1818"/></linearGradient><linearGradient id="paint2_linear" x1="-18.564" x2="147.028" y1="229.893" y2="-16.644" gradientUnits="userSpaceOnUse"><stop stop-color="#D96AB1"/><stop offset=".137" stop-color="#D9538B"/><stop offset=".495" stop-color="#D91A2A"/><stop offset=".575" stop-color="#D31A29"/><stop offset=".68" stop-color="#C21926"/><stop offset=".8" stop-color="#A71821"/><stop offset=".929" stop-color="#811619"/><stop offset="1" stop-color="#691515"/></linearGradient></defs></svg>