<svg xmlns="http://www.w3.org/2000/svg" width="257" height="234" fill="none" viewBox="0 0 257 234"><g clip-path="url(#clip0)"><path fill="url(#paint0_linear)" d="M111.429 133.714L72.4287 100.286C72.4287 100.286 78.0001 91.9286 86.3573 83.5714C94.7144 75.2143 101.601 73.2531 111.429 66.8571C130.99 54.132 147.643 0 172.714 0L111.429 133.714Z"/><path fill="url(#paint1_linear)" d="M55.7143 167.511L0 128.143L72.4286 100.286L112.972 130.734L72.4286 161.94L55.7143 167.511Z"/><path fill="url(#paint2_linear)" d="M172.715 0C200.572 0 245.143 150.429 256.286 189.429C256.286 189.429 217.192 152.49 195.001 156C172.81 159.51 164.525 192.482 140.818 215.926C125.358 231.214 111.429 234 111.429 234C111.429 234 110.281 188.738 83.572 172.714C69.6434 164.357 55.7148 167.143 55.7148 167.143C55.7148 167.143 89.4164 150.98 108.499 121.602C127.581 92.2239 153.215 0 172.715 0Z"/></g><defs><linearGradient id="paint0_linear" x1="120.594" x2="143.503" y1="43.908" y2="116.187" gradientUnits="userSpaceOnUse"><stop stop-color="#4ADDDF"/><stop offset=".699" stop-color="#3F5352"/><stop offset=".863" stop-color="#442729"/></linearGradient><linearGradient id="paint1_linear" x1="0" x2="204.889" y1="133.899" y2="133.899" gradientUnits="userSpaceOnUse"><stop stop-color="#4ADDDF"/><stop offset=".792" stop-color="#3F5352"/><stop offset="1" stop-color="#442729"/></linearGradient><linearGradient id="paint2_linear" x1="55.715" x2="256.286" y1="117" y2="117" gradientUnits="userSpaceOnUse"><stop offset=".206" stop-color="#53140F"/><stop offset=".3" stop-color="#84360F"/><stop offset=".413" stop-color="#B85B10"/><stop offset=".511" stop-color="#DF7610"/><stop offset=".59" stop-color="#F68710"/><stop offset=".639" stop-color="#FF8D10"/><stop offset=".729" stop-color="#FD8A10"/><stop offset=".8" stop-color="#F58010"/><stop offset=".865" stop-color="#E86F10"/><stop offset=".925" stop-color="#D65811"/><stop offset=".982" stop-color="#C03A11"/><stop offset="1" stop-color="#B72F11"/></linearGradient><clipPath id="clip0"><rect width="256.286" height="234" fill="#fff"/></clipPath></defs></svg>