<svg xmlns="http://www.w3.org/2000/svg" width="256" height="255" fill="none" viewBox="0 0 256 255"><path fill="url(#paint0_linear)" d="M197.467 167.763L51.9463 254.173L240.369 241.387L254.881 51.3926L197.467 167.763Z"/><path fill="url(#paint1_linear)" d="M240.677 241.258L224.482 129.479L180.369 187.729L240.677 241.258Z"/><path fill="url(#paint2_linear)" d="M240.896 241.257L122.249 231.943L52.5762 253.93L240.896 241.257Z"/><path fill="url(#paint3_linear)" d="M52.7438 253.954L82.3832 156.854L17.1611 170.801L52.7438 253.954Z"/><path fill="url(#paint4_linear)" d="M180.357 188.051L153.085 81.2256L75.0371 154.385L180.357 188.051Z"/><path fill="url(#paint5_linear)" d="M248.693 82.7301L174.916 22.4736L154.372 88.8921L248.693 82.7301Z"/><path fill="url(#paint6_linear)" d="M214.19 0.990553L170.799 24.9696L143.424 0.668945L214.19 0.990553Z"/><path fill="url(#paint7_linear)" d="M0 203.372L18.1773 170.221L3.47337 130.728L0 203.372Z"/><path fill="#fff" d="M2.49609 129.479L17.2901 171.443L81.5731 157.021L154.964 88.814L175.676 23.0271L143.063 0L87.618 20.7502C70.1496 36.9978 36.2521 69.1457 35.03 69.7504C33.8207 70.3678 12.646 110.389 2.49609 129.479Z"/><path fill="url(#paint8_linear)" d="M54.4412 54.0942C92.3009 16.5561 141.108 -5.62195 159.839 13.2757C178.557 32.1734 158.707 78.099 120.847 115.624C82.9872 153.15 34.7845 176.55 16.067 157.652C-2.66349 138.767 16.5815 91.6195 54.4412 54.0942Z"/><path fill="url(#paint9_linear)" d="M52.7441 253.916L82.152 156.508L179.818 187.884C144.505 220.997 105.231 248.989 52.7441 253.916Z"/><path fill="url(#paint10_linear)" d="M155.092 88.6227L180.164 187.935C209.662 156.919 236.137 123.575 249.103 82.332L155.092 88.6227Z"/><path fill="url(#paint11_linear)" d="M248.848 82.8334C258.882 52.5507 261.197 9.10792 213.881 1.04199L175.057 22.4868L248.848 82.8334Z"/><path fill="#9E1209" d="M0 202.935C1.38935 252.914 37.448 253.659 52.808 254.098L17.3282 171.237L0 202.935Z"/><path fill="url(#paint12_radial)" d="M155.232 88.7769C177.899 102.709 223.582 130.689 224.508 131.203C225.948 132.014 244.203 100.419 248.346 82.5635L155.232 88.7769Z"/><path fill="url(#paint13_radial)" d="M82.1133 156.508L121.427 232.356C144.672 219.749 162.875 204.389 179.548 187.935L82.1133 156.508Z"/><path fill="url(#paint14_linear)" d="M17.1738 171.34L11.6035 237.668C22.1137 252.025 36.5732 253.273 51.7402 252.153C40.7669 224.843 18.8461 170.233 17.1738 171.34Z"/><path fill="url(#paint15_linear)" d="M174.826 22.6538L252.925 33.6142C248.757 15.9514 235.957 4.55365 214.14 0.990234L174.826 22.6538Z"/><defs><linearGradient id="paint0_linear" x1="223.934" x2="170.227" y1="277.289" y2="182.321" gradientUnits="userSpaceOnUse"><stop stop-color="#FB7655"/><stop offset=".41" stop-color="#E42B1E"/><stop offset=".99" stop-color="#900"/><stop offset="1" stop-color="#900"/></linearGradient><linearGradient id="paint1_linear" x1="250.719" x2="175.219" y1="197.542" y2="182.793" gradientUnits="userSpaceOnUse"><stop stop-color="#871101"/><stop offset=".99" stop-color="#911209"/><stop offset="1" stop-color="#911209"/></linearGradient><linearGradient id="paint2_linear" x1="195.274" x2="194.301" y1="280.166" y2="232.277" gradientUnits="userSpaceOnUse"><stop stop-color="#871101"/><stop offset=".99" stop-color="#911209"/><stop offset="1" stop-color="#911209"/></linearGradient><linearGradient id="paint3_linear" x1="49.78" x2="72.228" y1="163.879" y2="229.703" gradientUnits="userSpaceOnUse"><stop stop-color="#fff"/><stop offset=".23" stop-color="#E57252"/><stop offset=".46" stop-color="#DE3B20"/><stop offset=".99" stop-color="#A60003"/><stop offset="1" stop-color="#A60003"/></linearGradient><linearGradient id="paint4_linear" x1="123.668" x2="127.74" y1="98.689" y2="169.934" gradientUnits="userSpaceOnUse"><stop stop-color="#fff"/><stop offset=".23" stop-color="#E4714E"/><stop offset=".56" stop-color="#BE1A0D"/><stop offset=".99" stop-color="#A80D00"/><stop offset="1" stop-color="#A80D00"/></linearGradient><linearGradient id="paint5_linear" x1="189.238" x2="195.192" y1="32.831" y2="84.574" gradientUnits="userSpaceOnUse"><stop stop-color="#fff"/><stop offset=".18" stop-color="#E46342"/><stop offset=".4" stop-color="#C82410"/><stop offset=".99" stop-color="#A80D00"/><stop offset="1" stop-color="#A80D00"/></linearGradient><linearGradient id="paint6_linear" x1="153.054" x2="161.448" y1="14.847" y2="-20.746" gradientUnits="userSpaceOnUse"><stop stop-color="#fff"/><stop offset=".54" stop-color="#C81F11"/><stop offset=".99" stop-color="#BF0905"/><stop offset="1" stop-color="#BF0905"/></linearGradient><linearGradient id="paint7_linear" x1="5.021" x2="26.974" y1="146.081" y2="159.842" gradientUnits="userSpaceOnUse"><stop stop-color="#fff"/><stop offset=".31" stop-color="#DE4024"/><stop offset=".99" stop-color="#BF190B"/><stop offset="1" stop-color="#BF190B"/></linearGradient><linearGradient id="paint8_linear" x1="-23.871" x2="173.398" y1="199.531" y2="-3.895" gradientUnits="userSpaceOnUse"><stop stop-color="#BD0012"/><stop offset=".07" stop-color="#fff"/><stop offset=".17" stop-color="#fff"/><stop offset=".27" stop-color="#C82F1C"/><stop offset=".33" stop-color="#820C01"/><stop offset=".46" stop-color="#A31601"/><stop offset=".72" stop-color="#B31301"/><stop offset=".99" stop-color="#E82609"/><stop offset="1" stop-color="#E82609"/></linearGradient><linearGradient id="paint9_linear" x1="127.453" x2="71.627" y1="220.023" y2="196.575" gradientUnits="userSpaceOnUse"><stop stop-color="#8C0C01"/><stop offset=".54" stop-color="#990C00"/><stop offset=".99" stop-color="#A80D0E"/><stop offset="1" stop-color="#A80D0E"/></linearGradient><linearGradient id="paint10_linear" x1="229.661" x2="172.156" y1="148.602" y2="107.756" gradientUnits="userSpaceOnUse"><stop stop-color="#7E110B"/><stop offset=".99" stop-color="#9E0C00"/><stop offset="1" stop-color="#9E0C00"/></linearGradient><linearGradient id="paint11_linear" x1="249.084" x2="222.041" y1="61.668" y2="34.216" gradientUnits="userSpaceOnUse"><stop stop-color="#79130D"/><stop offset=".99" stop-color="#9E120B"/><stop offset="1" stop-color="#9E120B"/></linearGradient><radialGradient id="paint12_radial" cx="0" cy="0" r="1" gradientTransform="translate(185.029 102.128) scale(64.7816 33.8509)" gradientUnits="userSpaceOnUse"><stop stop-color="#A80D00"/><stop offset=".99" stop-color="#7E0E08"/><stop offset="1" stop-color="#7E0E08"/></radialGradient><radialGradient id="paint13_radial" cx="0" cy="0" r="1" gradientTransform="translate(95.315 187.499) scale(86.1185 67.0392)" gradientUnits="userSpaceOnUse"><stop stop-color="#A30C00"/><stop offset=".99" stop-color="#800E08"/><stop offset="1" stop-color="#800E08"/></radialGradient><linearGradient id="paint14_linear" x1="34.309" x2="-14.176" y1="253.859" y2="213.613" gradientUnits="userSpaceOnUse"><stop stop-color="#8B2114"/><stop offset=".43" stop-color="#9E100A"/><stop offset=".99" stop-color="#B3100C"/><stop offset="1" stop-color="#B3100C"/></linearGradient><linearGradient id="paint15_linear" x1="198.935" x2="212.697" y1="12.604" y2="47.418" gradientUnits="userSpaceOnUse"><stop stop-color="#B31000"/><stop offset=".44" stop-color="#910F08"/><stop offset=".99" stop-color="#791C12"/><stop offset="1" stop-color="#791C12"/></linearGradient></defs></svg>