<svg xmlns="http://www.w3.org/2000/svg" width="256" height="232" fill="none" viewBox="0 0 256 232"><g clip-path="url(#clip0)"><path fill="#FDB300" d="M128 0L55.855 7.628L0 82.607L128 231.662L256 82.607L200.146 7.628L128 0Z"/><path fill="#EB6C00" d="M0 82.6074L128 231.661L51.846 82.6074H0Z"/><path fill="#EB6C00" d="M204.153 82.6074L128 231.661L255.999 82.6074H204.153Z"/><path fill="#FDAD00" d="M51.8457 82.6074L128 231.661L204.154 82.6074H51.8457Z"/><path fill="#FDD231" d="M55.8547 7.628L51.8457 82.607L128 0L55.8547 7.628Z"/><path fill="#FDD231" d="M204.153 82.607L200.145 7.627L128 0L204.153 82.607Z"/><path fill="#FDAD00" d="M204.154 82.6069H255.999L200.145 7.62695L204.154 82.6069Z"/><path fill="#FDAD00" d="M0 82.6069H51.846L55.855 7.62695L0 82.6069Z"/><path fill="#FEEEB7" d="M128 0L51.8457 82.607H204.154L128 0Z"/></g><defs><clipPath id="clip0"><rect width="256" height="232" fill="#fff"/></clipPath></defs></svg>