<svg xmlns="http://www.w3.org/2000/svg" width="256" height="213" fill="none" viewBox="0 0 256 213"><g clip-path="url(#clip0)"><mask id="mask0" width="257" height="212" x="0" y="0" mask-type="alpha" maskUnits="userSpaceOnUse"><path fill="#fff" d="M256.003 0.328125H0V211.267H256.003V0.328125Z"/></mask><g mask="url(#mask0)"><path fill="#5B2E6E" d="M0 139.993V0.328125L64.102 70.4118L128.481 0.328125L192.002 70.0486L256.003 0.328125V140.315L192.721 211.267L128.481 141.274L64.2404 211.267L0 139.993Z"/><path fill="url(#paint0_linear)" d="M32.1222 105.797C38.7765 98.5125 60.1913 75.0718 64.2404 70.6386C56.1039 61.7353 13.2756 14.8599 0 0.328125C0.809825 2.98883 28.8657 95.1059 32.1222 105.797Z"/><path fill="url(#paint1_linear)" d="M-0.000816664 0.328554L23.5214 25.832L48.9931 107.149L24.2364 114.718L-0.000816664 0.328554Z"/><path fill="url(#paint2_linear)" d="M31.8711 115.545L22.532 84.6284L57.6485 63.4844L71.5805 78.6441L31.8711 115.545Z"/><path fill="url(#paint3_linear)" d="M191.762 70.3179L256.002 140.315V0.328125L191.762 70.3179Z"/><path fill="url(#paint4_linear)" d="M191.781 70.3497L205.152 55.7966L256.003 112.509L256.003 140.314L191.781 70.3497Z"/><path fill="url(#paint5_linear)" d="M192.72 211.267L256.002 140.315L168.75 44.4336L192.72 211.267Z"/><path fill="url(#paint6_linear)" d="M128.48 141.274L192.721 211.267L168.751 44.4336L128.48 141.274Z"/><path fill="url(#paint7_linear)" d="M64.2402 211.267L128.481 141.274V0.328125L64.2402 211.267Z"/><path fill="url(#paint8_linear)" d="M64.2402 211.267L89.3613 183.896L128.481 41.5033V0.328125L64.2402 211.267Z"/><path fill="url(#paint9_linear)" d="M128.48 141.274L168.751 44.4335L128.48 0.328125V141.274Z"/><path fill="url(#paint10_linear)" d="M31.6406 105.661C33.8397 112.866 64.2446 211.267 64.2446 211.267L128.481 0.328125L31.6406 105.661Z"/><path fill="url(#paint11_linear)" d="M29.0419 108.428L51.7766 83.7593L83.944 189.821L64.2412 211.266L29.0419 108.428Z"/><path fill="url(#paint12_linear)" d="M0 140.774L64.2404 211.267L0.0026355 0.328125L0 140.774Z"/></g></g><defs><linearGradient id="paint0_linear" x1="8.308" x2="68.93" y1="9.875" y2="55.853" gradientUnits="userSpaceOnUse"><stop stop-color="#67337A"/><stop offset="1" stop-color="#723986"/></linearGradient><linearGradient id="paint1_linear" x1="30.818" x2="15.384" y1="54.788" y2="59.506" gradientUnits="userSpaceOnUse"><stop stop-color="#623274" stop-opacity="0"/><stop offset="1" stop-color="#542C65"/></linearGradient><linearGradient id="paint2_linear" x1="38.749" x2="49.721" y1="76.27" y2="91.939" gradientUnits="userSpaceOnUse"><stop stop-color="#623274" stop-opacity="0"/><stop offset="1" stop-color="#542C65"/></linearGradient><linearGradient id="paint3_linear" x1="250.654" x2="186.873" y1="8.166" y2="69.491" gradientUnits="userSpaceOnUse"><stop stop-color="#8A519F"/><stop offset="1" stop-color="#8A53A0"/></linearGradient><linearGradient id="paint4_linear" x1="231.746" x2="220.513" y1="94.411" y2="106.042" gradientUnits="userSpaceOnUse"><stop stop-color="#8A529F" stop-opacity=".1"/><stop offset="1" stop-color="#542C65"/></linearGradient><linearGradient id="paint5_linear" x1="190.3" x2="251.641" y1="96.821" y2="117.415" gradientUnits="userSpaceOnUse"><stop stop-color="#5C2E6D"/><stop offset="1" stop-color="#6D377B"/></linearGradient><linearGradient id="paint6_linear" x1="136.412" x2="183.809" y1="101.921" y2="106.976" gradientUnits="userSpaceOnUse"><stop stop-color="#612E74"/><stop offset="1" stop-color="#7F4395"/></linearGradient><linearGradient id="paint7_linear" x1="128.481" x2="128.481" y1=".328" y2="146.635" gradientUnits="userSpaceOnUse"><stop stop-color="#582C6A"/><stop offset="1" stop-color="#743983"/></linearGradient><linearGradient id="paint8_linear" x1="96.36" x2="76.665" y1="158.085" y2="157.477" gradientUnits="userSpaceOnUse"><stop stop-color="#623274" stop-opacity="0"/><stop offset="1" stop-color="#542C65"/></linearGradient><linearGradient id="paint9_linear" x1="128.48" x2="128.48" y1=".328" y2="141.274" gradientUnits="userSpaceOnUse"><stop stop-color="#723A85"/><stop offset="1" stop-color="#8C519C"/></linearGradient><linearGradient id="paint10_linear" x1="31.641" x2="93.383" y1="76.112" y2="81.022" gradientUnits="userSpaceOnUse"><stop stop-color="#66397A"/><stop offset="1" stop-color="#9F69AB"/></linearGradient><linearGradient id="paint11_linear" x1="61.73" x2="41.794" y1="144.044" y2="150.139" gradientUnits="userSpaceOnUse"><stop stop-color="#623274" stop-opacity="0"/><stop offset="1" stop-color="#542C65"/></linearGradient><linearGradient id="paint12_linear" x1="32.12" x2="32.12" y1="44.708" y2="165.265" gradientUnits="userSpaceOnUse"><stop stop-color="#5D306E"/><stop offset="1" stop-color="#9F6AAA"/></linearGradient><clipPath id="clip0"><rect width="256" height="213" fill="#fff"/></clipPath></defs></svg>